<svg xmlns="http://www.w3.org/2000/svg" version="1.1" xmlns:xlink="http://www.w3.org/1999/xlink" xmlns:svgjs="http://svgjs.dev/svgjs" width="1500" height="1500" viewBox="0 0 1500 1500"><rect width="1500" height="1500" fill="#000000"></rect><g transform="matrix(0.6666666666666666,0,0,0.6666666666666666,249.39393939393938,438.58569500674764)"><svg viewBox="0 0 396 247" data-background-color="#ffffff" preserveAspectRatio="xMidYMid meet" height="935" width="1500" xmlns="http://www.w3.org/2000/svg" xmlns:xlink="http://www.w3.org/1999/xlink"><g id="tight-bounds" transform="matrix(1,0,0,1,0.2400000000000091,-0.09999999999999432)"><svg viewBox="0 0 395.52 247.2" height="247.2" width="395.52"><g><svg></svg></g><g><svg viewBox="0 0 395.52 247.2" height="247.2" width="395.52"><g transform="matrix(1,0,0,1,75.54432,103.73399219765929)"><svg viewBox="0 0 244.43135999999998 39.7320156046814" height="39.7320156046814" width="244.43135999999998"><g><svg viewBox="0 0 244.43135999999998 39.7320156046814" height="39.7320156046814" width="244.43135999999998"><g><svg viewBox="0 0 244.43135999999998 39.7320156046814" height="39.7320156046814" width="244.43135999999998"><g><svg viewBox="0 0 244.43135999999998 39.7320156046814" height="39.7320156046814" width="244.43135999999998"><g id="textblocktransform"><svg viewBox="0 0 244.43135999999998 39.7320156046814" height="39.7320156046814" width="244.43135999999998" id="textblock"><g><svg viewBox="0 0 244.43135999999998 39.7320156046814" height="39.7320156046814" width="244.43135999999998"><g transform="matrix(1,0,0,1,0,0)"><svg width="244.43135999999998" viewBox="2.5 -37.5 307.57 50" height="39.7320156046814" data-palette-color="#ff851b"><path d="M19.8-16.4L19.55-21.65Q17.5-22.3 15.35-22.3L15.35-22.3Q11-22.3 8.38-19.5 5.75-16.7 5.75-11.6L5.75-11.6Q5.75-2.7 14-2.7L14-2.7Q17.3-2.7 20.8-3.8L20.8-3.8Q21.5-4 21.65-4.1L21.65-4.1 22.45-1.4Q20.7-0.35 16.1 0.1L16.1 0.1Q14.8 0.2 13.35 0.2L13.35 0.2Q9.1 0.2 6.35-1.9L6.35-1.9Q2.5-4.8 2.5-11.45 2.5-18.1 6.08-21.68 9.65-25.25 15.3-25.25L15.3-25.25Q17.1-25.25 19.13-24.78 21.15-24.3 22.25-23.3L22.25-23.3 22.25-16.75 19.8-16.4ZM30.7-37.5L30.7-22.15Q34.65-25 38.3-25.15L38.3-25.15Q41.4-25.15 43.05-24.4 44.7-23.65 45.75-22.28 46.8-20.9 46.8-18.4L46.8-18.4 46.8 0 43.55 0 43.55-17.55Q43.55-19.4 42.75-20.4L42.75-20.4Q41.15-22.25 37.85-22.25L37.85-22.25Q34.6-22.1 30.7-20.15L30.7-20.15 30.7 0 27.45 0 27.45-37.25 30.7-37.5ZM66.15-24.5L64.84-21.5Q64.05-21.95 63.15-21.95 62.25-21.95 62.15-21.9L62.15-21.9Q60.25-21.9 58.32-20.53 56.4-19.15 55.05-17.45L55.05-17.45 55.05 0 51.8 0 51.8-25 55.05-25.25 55.05-19.65Q56.9-22 58.2-22.95L58.2-22.95Q60.59-24.75 62.8-24.85L62.8-24.85Q63.09-24.9 63.9-24.9 64.7-24.9 66.15-24.5L66.15-24.5ZM69.69-25L72.94-25.25 72.94 0 69.69 0 69.69-25ZM71.19-31.7Q70.19-31.7 69.67-32.35 69.14-33 69.14-34 69.14-35 69.72-35.63 70.29-36.25 71.29-36.25 72.29-36.25 72.92-35.63 73.54-35 73.54-33.9 73.54-32.8 72.87-32.25 72.19-31.7 71.19-31.7ZM94.29-24.5L93.49-21.7Q91.69-22.3 88.59-22.3 85.49-22.3 83.79-21.2 82.09-20.1 82.09-18.48 82.09-16.85 83.09-16.1 84.09-15.35 85.59-14.83 87.09-14.3 88.87-13.8 90.64-13.3 92.14-12.5L92.14-12.5Q95.64-10.7 95.64-7.15 95.64-3.6 93.22-1.7 90.79 0.2 86.14 0.2L86.14 0.2Q83.79 0.2 81.62-0.28 79.44-0.75 78.29-1.6L78.29-1.6 79.39-4.25Q80.54-3.25 84.04-2.8L84.04-2.8Q85.14-2.65 86.29-2.65L86.29-2.65Q88.89-2.65 90.64-3.73 92.39-4.8 92.39-7L92.39-7Q92.39-8.5 91.39-9.35 90.39-10.2 88.89-10.78 87.39-11.35 85.62-11.8 83.84-12.25 82.34-12.98 80.84-13.7 79.84-14.88 78.84-16.05 78.84-18.05L78.84-18.05Q78.84-21.3 81.34-23.25 83.84-25.2 88.04-25.2L88.04-25.2Q89.09-25.2 90.19-25.08 91.29-24.95 92.19-24.85L92.19-24.85 94.29-24.5ZM110.39-3.6L110.99-0.9Q110.09 0 107.74 0L107.74 0Q104.44 0 103.29-1.7L103.29-1.7Q101.34-3.55 101.34-6.7L101.34-6.7 101.34-22.1 98.54-22.1 98.99-25 101.34-25 101.34-29.95 104.59-30.25 104.59-25 110.39-25 110.39-22.1 104.59-22.1 104.59-5.9Q104.59-3 107.59-3L107.59-3Q108.89-3 110.39-3.6L110.39-3.6ZM114.24-6.4L114.24-6.4Q113.34-8.8 113.34-12L113.34-12Q113.34-18.15 116.79-21.68 120.24-25.2 125.44-25.2L125.44-25.2Q133.59-25.2 136.14-18.6L136.14-18.6Q137.09-16.2 137.09-13L137.09-13Q137.09-6.85 133.64-3.33 130.19 0.2 124.99 0.2L124.99 0.2Q116.84 0.2 114.24-6.4ZM116.59-12.35Q116.59-7.75 118.96-5.23 121.34-2.7 125.09-2.7 128.84-2.7 131.34-5.38 133.84-8.05 133.84-12.65 133.84-17.25 131.49-19.78 129.14-22.3 125.36-22.3 121.59-22.3 119.09-19.63 116.59-16.95 116.59-12.35ZM155.83-24.5L155.03-21.7Q153.23-22.3 150.13-22.3 147.03-22.3 145.33-21.2 143.63-20.1 143.63-18.48 143.63-16.85 144.63-16.1 145.63-15.35 147.13-14.83 148.63-14.3 150.41-13.8 152.18-13.3 153.68-12.5L153.68-12.5Q157.18-10.7 157.18-7.15 157.18-3.6 154.76-1.7 152.33 0.2 147.68 0.2L147.68 0.2Q145.33 0.2 143.16-0.28 140.98-0.75 139.83-1.6L139.83-1.6 140.93-4.25Q142.08-3.25 145.58-2.8L145.58-2.8Q146.68-2.65 147.83-2.65L147.83-2.65Q150.43-2.65 152.18-3.73 153.93-4.8 153.93-7L153.93-7Q153.93-8.5 152.93-9.35 151.93-10.2 150.43-10.78 148.93-11.35 147.16-11.8 145.38-12.25 143.88-12.98 142.38-13.7 141.38-14.88 140.38-16.05 140.38-18.05L140.38-18.05Q140.38-21.3 142.88-23.25 145.38-25.2 149.58-25.2L149.58-25.2Q150.63-25.2 151.73-25.08 152.83-24.95 153.73-24.85L153.73-24.85 155.83-24.5ZM181.23-9.65L181.23-9.65Q177.53-11.5 177.53-16.6L177.53-16.6Q177.53-20.8 180.43-23 183.33-25.2 187.83-25.2L187.83-25.2Q189.03-25.2 190.78-24.95L190.78-24.95 200.18-25.2 200.08-23.3 194.63-23.3Q197.38-21.25 197.38-17.13 197.38-13 194.63-10.78 191.88-8.55 187.53-8.55L187.53-8.55Q184.73-8.55 182.88-9.05L182.88-9.05Q181.93-8.15 181.93-6.95L181.93-6.95Q181.93-5.25 183.8-4.5 185.68-3.75 188.23-3.4L188.23-3.4Q193.88-2.65 196.38-1.3L196.38-1.3Q199.98 0.7 199.98 4.85 199.98 9 196.03 11L196.03 11Q193.03 12.5 188.78 12.5 184.53 12.5 182.23 11.85L182.23 11.85Q176.18 10.1 176.18 5.35 176.18 0.6 181.53-2.7L181.53-2.7Q179.43-4.25 179.43-6.3 179.43-8.35 181.23-9.65ZM196.73 4.8L196.73 4.8Q196.73 1.55 192.43 0.3L192.43 0.3Q191.23-0.05 188.13-0.55 185.03-1.05 183.28-1.75L183.28-1.75Q179.43 1.45 179.43 4.45L179.43 4.45Q179.43 5.75 179.83 6.6 180.23 7.45 181.23 8.1L181.23 8.1Q183.43 9.6 187.93 9.6L187.93 9.6Q193.83 9.6 195.93 7.1L195.93 7.1Q196.73 6.15 196.73 4.8ZM193.98-17.25L193.98-17.25Q193.98-22.55 187.68-22.55L187.68-22.55Q184.68-22.55 182.73-21.18 180.78-19.8 180.78-16.98 180.78-14.15 182.18-12.68 183.58-11.2 186.9-11.2 190.23-11.2 192.1-12.8 193.98-14.4 193.98-17.25ZM207.58-37.5L207.58 0 204.33 0 204.33-37.25 207.58-37.5ZM207.58-13.3L217.63-25 221.53-25 210.83-13.3 222.53 0 218.88 0.25 207.58-13.3ZM224.57-6.4L224.57-6.4Q223.67-8.8 223.67-12L223.67-12Q223.67-18.15 227.12-21.68 230.57-25.2 235.77-25.2L235.77-25.2Q243.92-25.2 246.47-18.6L246.47-18.6Q247.42-16.2 247.42-13L247.42-13Q247.42-6.85 243.97-3.33 240.52 0.2 235.32 0.2L235.32 0.2Q227.17 0.2 224.57-6.4ZM226.92-12.35Q226.92-7.75 229.3-5.23 231.67-2.7 235.42-2.7 239.17-2.7 241.67-5.38 244.17-8.05 244.17-12.65 244.17-17.25 241.82-19.78 239.47-22.3 235.7-22.3 231.92-22.3 229.42-19.63 226.92-16.95 226.92-12.35ZM265.82-24.5L264.52-21.5Q263.72-21.95 262.82-21.95 261.92-21.95 261.82-21.9L261.82-21.9Q259.92-21.9 258-20.53 256.07-19.15 254.72-17.45L254.72-17.45 254.72 0 251.47 0 251.47-25 254.72-25.25 254.72-19.65Q256.57-22 257.87-22.95L257.87-22.95Q260.27-24.75 262.47-24.85L262.47-24.85Q262.77-24.9 263.57-24.9 264.37-24.9 265.82-24.5L265.82-24.5ZM267.12-6.4L267.12-6.4Q266.22-8.8 266.22-12L266.22-12Q266.22-18.15 269.67-21.68 273.12-25.2 278.32-25.2L278.32-25.2Q286.47-25.2 289.02-18.6L289.02-18.6Q289.97-16.2 289.97-13L289.97-13Q289.97-6.85 286.52-3.33 283.07 0.2 277.87 0.2L277.87 0.2Q269.72 0.2 267.12-6.4ZM269.47-12.35Q269.47-7.75 271.84-5.23 274.22-2.7 277.97-2.7 281.72-2.7 284.22-5.38 286.72-8.05 286.72-12.65 286.72-17.25 284.37-19.78 282.02-22.3 278.24-22.3 274.47-22.3 271.97-19.63 269.47-16.95 269.47-12.35ZM308.72-24.5L307.92-21.7Q306.12-22.3 303.02-22.3 299.92-22.3 298.22-21.2 296.52-20.1 296.52-18.48 296.52-16.85 297.52-16.1 298.52-15.35 300.02-14.83 301.52-14.3 303.29-13.8 305.07-13.3 306.57-12.5L306.57-12.5Q310.07-10.7 310.07-7.15 310.07-3.6 307.64-1.7 305.22 0.2 300.57 0.2L300.57 0.2Q298.22 0.2 296.04-0.28 293.87-0.75 292.72-1.6L292.72-1.6 293.82-4.25Q294.97-3.25 298.47-2.8L298.47-2.8Q299.57-2.65 300.72-2.65L300.72-2.65Q303.32-2.65 305.07-3.73 306.82-4.8 306.82-7L306.82-7Q306.82-8.5 305.82-9.35 304.82-10.2 303.32-10.78 301.82-11.35 300.04-11.8 298.27-12.25 296.77-12.98 295.27-13.7 294.27-14.88 293.27-16.05 293.27-18.05L293.27-18.05Q293.27-21.3 295.77-23.25 298.27-25.2 302.47-25.2L302.47-25.2Q303.52-25.2 304.62-25.08 305.72-24.95 306.62-24.85L306.62-24.85 308.72-24.5Z" opacity="1" transform="matrix(1,0,0,1,0,0)" fill="#ffffff" class="wordmark-text-0" data-fill-palette-color="primary" id="text-0"></path></svg></g></svg></g></svg></g></svg></g><g></g></svg></g></svg></g></svg></g><g><path d="M79.095 94.354A122.216 122.216 0 0 1 316.425 94.354L312.842 94.354A118.633 118.633 0 0 0 82.678 94.354L79.095 94.354M79.095 152.846A122.216 122.216 0 0 0 316.425 152.846L312.842 152.846A118.633 118.633 0 0 1 82.678 152.846L79.095 152.846" fill="#ffffff" stroke="transparent" data-fill-palette-color="tertiary"></path></g></svg></g><defs></defs></svg><rect width="395.52" height="247.2" fill="none" stroke="none" visibility="hidden"></rect></g></svg></g></svg>